<?xml version="1.0" encoding="UTF-8"?>
<svg width="605" height="605" version="1.1" viewBox="0 0 605.00001 605.00001" xmlns="http://www.w3.org/2000/svg">
 <defs>
  <radialGradient id="d" cx="227.1" cy="444.28" r="200" gradientTransform="translate(0,7.7838e-6)" gradientUnits="userSpaceOnUse">
   <stop stop-color="#d58155" offset="0"/>
   <stop stop-color="#e7944f" offset=".11103"/>
   <stop stop-color="#f0a350" offset=".18642"/>
   <stop stop-color="#f2ad56" offset=".25389"/>
   <stop stop-color="#f2b75c" offset=".33324"/>
   <stop stop-color="#f4c163" offset=".41259"/>
   <stop stop-color="#f5c96c" offset=".47214"/>
   <stop stop-color="#f7d078" offset=".52376"/>
   <stop stop-color="#f8d686" offset=".57143"/>
   <stop stop-color="#f9de96" offset=".78939"/>
   <stop stop-color="#fae5a1" offset=".8331"/>
   <stop stop-color="#fbecaf" offset=".88868"/>
   <stop stop-color="#fcf3bb" offset=".92447"/>
   <stop stop-color="#fcf9c7" offset=".96421"/>
   <stop stop-color="#fefbce" offset="1"/>
  </radialGradient>
  <filter id="c" x="0" y="0" width="1" height="1" color-interpolation-filters="sRGB">
   <feTurbulence baseFrequency="0.08" numOctaves="5" type="fractalNoise"/>
   <feGaussianBlur result="result91" stdDeviation="0.5"/>
   <feDisplacementMap in="SourceGraphic" in2="result91" result="result1" scale="20" xChannelSelector="R" yChannelSelector="G"/>
   <feComposite in="result1" in2="SourceGraphic" operator="atop"/>
  </filter>
 </defs>
 <g transform="matrix(1.4375 0 0 1.4375 -23.952 -336.14)">
  <path d="m214.02 636.57c0-5.2107-3.6134-20.065-8.0298-33.01-7.8515-23.014-8.2341-31.693-2.3539-53.393 2.9789-10.993-3.9487-8.3466-13.655 5.2158-5.7137 7.9839-10.632 21.094-14.221 37.909-4.2428 19.877-7.5162 27.759-14.437 34.764-10.06 10.183-14.217 9.4246-8.3611-1.5258 2.2634-4.2327 4.0237-19.546 4.2258-36.762 0.32674-27.829 1.8489-34.367 13.199-56.685 0.65157-1.2812-0.76097-2.3295-3.139-2.3295-5.1538 0-15.89 11.473-18.894 20.189-1.1772 3.4166-6.5612 13.743-11.964 22.947-7.7304 13.168-13.093 18.285-25.167 24.012-16.791 7.9645-21.685 5.2123-11.069-6.2256 3.5562-3.8317 6.4659-8.8266 6.4659-11.1 0-2.2731 4.9367-14.522 10.97-27.22 8.0272-16.893 13.79-24.771 21.48-29.364 10.861-6.4867 13.695-11.875 6.2442-11.875-4.2156 0-34.484 21.605-46.366 33.095-8.1792 7.9095-33.095 17.259-39.434 14.796-6.0048-2.3324-6.7542-7.5129-1.0868-7.5129 4.5685 0 30.921-25.33 41.602-39.989 3.9704-5.4487 12.601-12.686 19.178-16.083 6.5777-3.3967 11.959-6.9691 11.959-7.9387 0-4.3182-26.576 3.4191-44.837 13.054-14.794 7.8053-23.964 10.578-34.987 10.578-18.914 0-21.945-4.6165-7.1408-10.878 6.3118-2.6694 18.45-10.12 26.974-16.558 17.535-13.243 26.16-17.741 41.58-21.683l10.74-2.7456-12.661-3.9517c-10.621-3.3151-15.686-3.1747-31.437 0.87143-18.942 4.8659-26.36 4.1595-44.123-4.2016-13.148-6.1888-10.303-11.451 7.534-13.934 8.7849-1.223 24.958-5.6471 35.941-9.8314 14.391-5.4828 23-7.0445 30.823-5.5912 13.426 2.4941 10.326-1.1674-10.315-12.185-8.268-4.4133-19.729-8.0241-25.468-8.0241-16.397 0-43.885-16.776-43.885-26.784 0-3.0394 2.6733-2.8188 11.507 0.94946 6.3289 2.6997 19.102 4.8534 28.384 4.7859 9.2824-0.0676 24.671 1.8454 34.197 4.251s18.325 4.3738 19.554 4.3738c5.0031 0-6.281-9.6902-25.955-22.289-20.876-13.369-31.967-26.163-35.688-41.168-2.0952-8.4498 2.6227-11.11 6.9722-3.9321 19.454 24.592 55.117 25.201 75.581 46.785l8.6878 9.7327-2.1195-10.871c-9.9228-30.783-39.075-36.392-46.304-71.752-1.8442-8.4925-3.6416-17.53 0.38926-17.832 2.9365 4.2166 5.9926 8.0542 9.1236 11.611 21.134 22.43 49.908 42.238 61.34 67.102l1.033-12.284c1.1612-13.809-4.1185-35.855-11.935-49.837-6.5301-11.68-9.7728-29.795-7.1948-40.193 2.8599-11.534 6.2273-9.7975 10.694 5.5149 2.1604 7.4063 9.6952 20.007 16.744 28.001 12.271 13.917 19.897 31.126 19.897 44.903 0 11.869 5.7969 10.235 9.63-2.7154 2.9743-10.049 3.004-17.466 0.13771-34.385-3.873-22.862-0.8042-45.727 7.0192-52.299 2.9519-2.4798 4.2267 0.52725 5.5567 13.107 0.94929 8.9786 4.7656 23.205 8.4806 31.615 5.3804 12.179 6.4248 18.973 5.1333 33.39-0.954 10.649-0.40706 18.1 1.3287 18.1 4.2211 0 13.692-23.395 17.826-44.034 3.7649-18.796 18.509-42.935 26.223-42.935 2.521 0 4.5686 0.34942 4.5504 0.77651-0.0172 0.4271-2.1625 7.7651-4.7649 16.307-3.3008 10.834-4.1713 21.636-2.8784 35.719 1.5354 16.726 0.77369 22.3-4.4407 32.494-8.483 16.584-7.9888 18.23 3.6788 12.257 12.681-6.4922 29.165-25.234 31.504-35.819 1.883-8.5218 9.4239-16.759 23.826-26.025 11.367-7.3134 13.513-4.1658 5.787 8.4879-3.4784 5.6969-7.8351 17.302-9.6814 25.788-3.1582 14.516-20.313 44.918-25.353 44.932-1.2658 2e-3 -2.3014 2.1214-2.3014 4.7068 0 4.1765 1.2695 4.1638 11.384-0.1138 6.261-2.648 13.693-7.2093 16.515-10.136 22.862-23.712 46.262-37.677 56.48-33.708 5.4158 2.1036 6.2061 8.1973 1.063 8.1973-7.4636 0-23.738 15.984-32.772 32.186-7.6902 13.793-12.396 18.327-25.625 24.691l-16.205 7.7958 11.701 2.222c6.9523 1.3202 14.404 0.83701 18.361-1.1906 18.403-9.4304 40.654-16.008 54.154-16.008 16.82 0 23.373 5.0511 10.166 7.8353-11.28 2.3779-26.719 10.204-34.376 17.425-3.383 3.1902-7.4204 5.8004-8.972 5.8004s-4.3973 1.9224-6.3237 4.2719c-1.9264 2.3496-9.6901 6.0255-17.253 8.1688-7.5626 2.1433-13.75 4.5139-13.75 5.2681 0 0.75417 2.3091 3.7086 5.1314 6.5653 4.1759 4.2269 11.461 5.1977 39.124 5.2137 28.889 0.0174 35.361 0.95231 43.106 6.2317l9.1132 6.2121-19.853 1.7226c-10.919 0.94742-27.178 4.278-36.13 7.4012-11.608 4.0499-20.849 5.1544-32.22 3.851l-15.943-1.8278 6.9984 5.8727c3.8491 3.23 14.896 7.491 24.548 9.4688 27.973 5.7318 41.943 11.745 51.549 22.189 7.0118 7.6235 7.6257 9.2036 2.8233 7.2657-3.3754-1.362-20.636-3.6165-38.357-5.0099-35.224-2.7698-48.297-5.179-50.858-9.3731-2.6869-4.4006-7.4449-3.1464-7.4449 1.9625 0 4.3288 29.656 25.04 34.873 27.836 3.8484 2.0626 23.804 21.735 28.024 30.08 1.8872 3.7314 3.4314 9.4553 3.4314 12.72 0 4.8552-2.2506 3.7683-12.366-5.9721-6.8014-6.5491-16.122-12.715-20.713-13.702-13.172-2.8327-37.944-14.674-47.332-22.625-8.2507-6.988-7.3987-8.5005-7.3987-2.5021 0 3.4297 7.0937 13.14 10.869 19.58 11.269 19.223 36.426 42.578 35.15 56.861-1.0397 11.643-1.1155 11.684-4.5325 3.7335-1.9012-4.4238-9.5685-13.509-17.038-20.189-7.4698-6.6804-13.25-9.762-18.905-15.683-7.0765-7.4088-14.871-16.449-18.519-24.531-3.6825-5.3976-10.254-9.9236-12.04-9.9236-3.7406 0-5.6204 19.009-0.60394 33.202 1.8114 5.125 8.6096 14.956 10.786 22.566 7.7475 27.098 1.3729 57.475-6.7703 32.263-2.1199-6.5634-8.9655-19.621-15.212-29.017-6.2469-9.3958-14.143-25.288-17.548-35.316-6.7581-19.906-7.2599-19.826-13.12 2.1057-3.221 12.055-3.2545 18.261-0.17356 32.196 3.0329 13.718 3.0386 20.075 0.0277 30.961-4.6145 16.682-9.0844 20.39-9.0844 7.5368z" fill="url(#d)" filter="url(#c)"/>
 </g>
</svg>
